<?xml version="1.0" encoding="UTF-8"?> <svg xmlns="http://www.w3.org/2000/svg" viewBox="0 0 9 14" fill="none" role="img" aria-label=""><path d="M0.518258918918919 10.7397C0.5171132432432434 10.799562162162163 0.4996410810810811 10.857600000000001 0.4681654054054054 10.906102702702702C0.43668972972972975 10.95462972972973 0.39270405405405406 10.991286486486487 0.3420705405405406 11.011232432432433C0.2419175675675676 11.051586486486487 0.15535313513513513 11.125386486486486 0.09415654054054054 11.222562162162163C0.03295994594594595 11.319713513513515 0.00010338445945945946 11.435545945945947 0.00005807335135135135 11.554272972972974V12.420851351351352C0.00005807335135135135 12.61050810810811 0.033567081081081085 12.798316216216216 0.09867210810810811 12.97354864864865C0.16377713513513514 13.148781081081083 0.25920243243243246 13.30800810810811 0.37950081081081083 13.442108108108108C0.49979918918918925 13.576232432432434 0.6426145945945946 13.682602702702704 0.7997935135135136 13.755186486486489C0.9569700000000001 13.82777027027027 1.125432972972973 13.865132432432434 1.2955597297297299 13.865132432432434H7.638348648648649C7.808472972972973 13.865132432432434 7.976918918918918 13.82777027027027 8.134102702702702 13.755186486486489C8.291286486486486 13.682602702702704 8.434094594594594 13.576232432432434 8.554402702702705 13.442108108108108C8.674686486486486 13.30800810810811 8.770110810810813 13.148781081081083 8.835227027027027 12.97354864864865C8.90031891891892 12.798316216216216 8.933837837837839 12.61050810810811 8.933837837837839 12.420851351351352V11.554272972972974C8.93378918918919 11.435545945945947 8.900927027027027 11.319713513513515 8.839751351351351 11.222562162162163C8.778551351351352 11.125386486486486 8.691981081081082 11.051586486486487 8.591813513513515 11.011232432432433C8.541194594594595 10.991286486486487 8.497216216216216 10.95462972972973 8.465740540540542 10.906102702702702C8.434264864864865 10.857600000000001 8.416775675675677 10.799562162162163 8.415632432432433 10.7397V3.1254324324324325C8.41821081081081 3.062675675675676 8.438716216216218 3.0024972972972974 8.474132432432432 2.953654054054054C8.509548648648648 2.904810810810811 8.558051351351352 2.8698567567567568 8.612562162162163 2.8539C8.708837837837837 2.8098243243243246 8.790981081081082 2.7344432432432435 8.848264864864865 2.6375837837837843C8.905572972972974 2.5407243243243243 8.935394594594595 2.4268743243243245 8.933837837837839 2.310857027027027V1.444285945945946C8.933837837837839 1.0612362162162163 8.797354054054054 0.6938781081081081 8.554402702702705 0.42302189189189193C8.311451351351351 0.1521651891891892 7.98192972972973 0 7.638348648648649 0L1.2955597297297299 0C0.9519713513513515 0 0.6224545945945946 0.1521651891891892 0.37950081081081083 0.42302189189189193C0.136548 0.6938781081081081 0.00005807335135135135 1.0612362162162163 0.00005807335135135135 1.444285945945946V2.310857027027027C-0.0014997308108108108 2.4268743243243245 0.02831545945945946 2.5407243243243243 0.0856208918918919 2.6375837837837843C0.14292632432432434 2.7344432432432435 0.22506591891891892 2.8098243243243246 0.32134135135135133 2.8539C0.3719772972972973 2.8738459459459462 0.41596054054054055 2.9105270270270274 0.44743621621621626 2.9590297297297297C0.4789118918918919 3.0075324324324324 0.49638648648648653 3.0655702702702703 0.49752972972972975 3.1254324324324325L0.518258918918919 10.7397ZM7.384427027027027 6.453072972972973C7.383283783783784 6.512910810810811 7.365794594594595 6.570972972972974 7.334318918918919 6.619475675675676C7.3028432432432435 6.667978378378379 7.258864864864865 6.70465945945946 7.208221621621623 6.724581081081081L1.7256672972972973 8.873683783783784C1.707025135135135 8.883462162162163 1.6866754054054056 8.888545945945946 1.6660727027027027 8.888545945945946C1.64547 8.888545945945946 1.6251202702702703 8.883462162162163 1.6064805405405407 8.873683783783784C1.5893683783783785 8.861351351351352 1.5755351351351352 8.84412972972973 1.5664208108108109 8.823794594594595C1.5573064864864865 8.803483783783784 1.553246756756757 8.780813513513515 1.5546600000000002 8.758143243243243V7.41205945945946C1.5546818918918919 7.352708108108108 1.5711105405405406 7.294791891891892 1.6017081081081084 7.246216216216216C1.6323081081081083 7.1976162162162165 1.6755908108108108 7.160740540540541 1.7256672972972973 7.140551351351352L7.208221621621623 4.991448648648649C7.2268783783783785 4.98167027027027 7.247213513513514 4.976586486486487 7.267816216216216 4.976586486486487C7.28841891891892 4.976586486486487 7.308778378378379 4.98167027027027 7.327410810810811 4.991448648648649C7.345118918918919 5.003513513513514 7.359689189189189 5.020516216216217 7.369686486486486 5.040778378378378C7.379683783783784 5.0610405405405405 7.384767567567568 5.083856756756758 7.384427027027027 5.106989189189189V6.453072972972973ZM5.923094594594595 2.888562162162162C5.954764864864865 2.887054054054054 5.985851351351352 2.898510810810811 6.010443243243243 2.9208162162162163C6.035035135135136 2.943121621621622 6.05142972972973 2.974718918918919 6.056537837837839 3.0096000000000003C6.061645945945947 3.044481081081081 6.055127027027027 3.080237837837838 6.038148648648649 3.110108108108108C6.021194594594594 3.1399783783783786 5.995021621621622 3.16187027027027 5.964543243243244 3.171648648648649L1.8759454054054057 4.760367567567568C1.8373135135135137 4.7750594594594595 1.796156756756757 4.77955945945946 1.755698108108108 4.773551351351352C1.715241891891892 4.767543243243244 1.6765832432432433 4.751172972972973 1.6427554054054054 4.725705405405406C1.6085894594594594 4.699191891891892 1.5807964864864865 4.6637270270270275 1.5618186486486487 4.622424324324324C1.5428432432432435 4.581121621621622 1.5332667567567568 4.535245945945946 1.5339332432432433 4.488835135135136V3.177437837837838C1.5339332432432433 3.1008162162162165 1.56123 3.027356756756757 1.6098202702702704 2.9731621621621627C1.6584105405405407 2.918991891891892 1.724314864864865 2.888562162162162 1.7930335135135136 2.888562162162162H5.923094594594595ZM3.010791891891892 10.97657027027027C2.979121621621622 10.978102702702703 2.9480594594594596 10.966621621621622 2.923467567567568 10.944316216216217C2.8988513513513516 10.922010810810812 2.8824567567567567 10.890437837837839 2.877348648648649 10.855532432432433C2.8722405405405405 10.820651351351353 2.878783783783784 10.784894594594595 2.8957378378378382 10.755024324324324C2.912691891891892 10.725178378378379 2.9388891891891893 10.703262162162162 2.9693432432432436 10.693483783783785L7.057945945945946 9.104764864864865C7.096572972972973 9.090072972972974 7.13772972972973 9.085572972972972 7.178205405405406 9.091581081081081C7.218656756756757 9.09758918918919 7.257308108108108 9.113983783783786 7.291143243243243 9.139427027027027C7.3259513513513514 9.165648648648649 7.354508108108108 9.20091891891892 7.374356756756757 9.242172972972975C7.39422972972973 9.283451351351353 7.404786486486487 9.329472972972974 7.405151351351352 9.376297297297297V10.68771891891892C7.405151351351352 10.764316216216217 7.37785945945946 10.8378 7.329259459459459 10.89197027027027C7.28065945945946 10.94614054054054 7.214764864864865 10.97657027027027 7.146048648648649 10.97657027027027H3.010791891891892Z" fill="#A47042"></path></svg>