<?xml version="1.0" encoding="UTF-8"?> <svg xmlns="http://www.w3.org/2000/svg" viewBox="0 0 11 14" fill="none" role="img" aria-label=""><path d="M6.29778085106383 0L7.137502127659575 0.46807106382978725C7.137502127659575 0.46807106382978725 6.476214893617021 1.755850425531915 6.717629787234043 2.3403553191489364C6.848834042553192 2.656312765957447 7.557351063829787 2.8084170212765955 7.557351063829787 2.8084170212765955C7.137502127659575 3.744563829787234 6.717629787234043 5.148772340425532 6.717629787234043 5.6168574468085115C8.816897872340425 7.021065957446808 8.816897872340425 9.829482978723405 10.91616595744681 10.765629787234044C10.91616595744681 12.637923404255318 8.816897872340425 14.042131914893616 5.458082978723405 14.042131914893616C2.099263404255319 14.042131914893616 0 12.637923404255318 0 10.765629787234044C2.099263404255319 9.829482978723405 2.099263404255319 7.021065957446808 4.198536170212766 5.6168574468085115C4.198536170212766 5.148772340425532 3.778663829787234 3.744563829787234 3.3588148936170215 2.8084170212765955C3.3588148936170215 2.8084170212765955 4.067331914893617 2.656312765957447 4.198536170212766 2.3403553191489364C4.439951063829787 1.755850425531915 3.778663829787234 0.46807106382978725 3.778663829787234 0.46807106382978725L4.618385106382979 0C4.618385106382979 0.9361421276595745 5.038234042553192 1.4042131914893616 5.458082978723405 1.4042131914893616C5.877931914893617 1.4042131914893616 6.29778085106383 0.9361421276595745 6.29778085106383 0Z" fill="#A47042"></path></svg>