<?xml version="1.0" encoding="UTF-8"?> <svg xmlns="http://www.w3.org/2000/svg" viewBox="0 0 12 12" fill="none" role="img" aria-label=""><path d="M11.872235294117647 9.469694117647059L10.874705882352941 8.472141176470588V5.577835294117647H7.9803999999999995L5.7324 3.3298588235294115H10.874705882352941V2.205849411764706H4.6084L3.4844 1.0818494117647057H10.874705882352941C11.183788235294118 1.0818494117647057 11.448494117647058 1.192 11.6688 1.412305882352941C11.889105882352942 1.6326094117647059 11.999058823529412 1.8971223529411765 11.998682352941175 2.205849411764706V8.949835294117646C11.998682352941175 9.04350588235294 11.989317647058822 9.134941176470589 11.970588235294118 9.224094117647057C11.951858823529411 9.313270588235294 11.919082352941176 9.395129411764705 11.872235294117647 9.469694117647059ZM4.776988235294118 5.577835294117647H1.8826988235294115V8.949835294117646H8.148988235294118L4.776988235294118 5.577835294117647ZM11.1276 11.92844705882353L9.272988235294118 10.073835294117647H1.8826988235294115C1.5736 10.073835294117647 1.309084705882353 9.963882352941177 1.0891552941176472 9.74395294117647C0.8692258823529412 9.524023529411764 0.7590752941176471 9.259317647058824 0.7586988235294118 8.949835294117646V2.205849411764706C0.7586988235294118 1.8967482352941176 0.8688517647058823 1.632235294117647 1.0891552941176472 1.412305882352941C1.3094588235294118 1.1923764705882351 1.573974117647059 1.0822235294117648 1.8826988235294115 1.0818494117647057L3.006705882352941 2.205849411764706H1.8826988235294115V3.3298588235294115H2.528988235294118L0 0.8008494117647059L0.8008494117647059 0L11.92844705882353 11.1276L11.1276 11.92844705882353Z" fill="#A47042"></path></svg>